 <svg version="1.0" xmlns="http://www.w3.org/2000/svg"  width="171.000000pt" height="61.000000pt" viewBox="0 0 171.000000 61.000000"  preserveAspectRatio="xMidYMid meet">  <g transform="translate(0.000000,61.000000) scale(0.100000,-0.100000)" fill="#0b5394" stroke="none"> <path d="M21 423 l-1 -192 107 -110 106 -110 94 92 93 91 0 208 c0 114 -3 208 -7 208 -4 0 -46 -38 -93 -85 l-85 -85 -80 80 c-71 72 -109 101 -89 68 4 -6 3 -8 -4 -4 -6 3 -14 1 -18 -6 -6 -9 -10 -5 -15 12 -4 14 -7 -61 -8 -167z m373 142 c-4 -8 -2 -15 4 -15 6 0 8 -8 6 -17 -10 -39 -19 -241 -11 -236 5 3 7 -19 6 -48 -2 -53 -3 -55 -83 -132 -58 -57 -82 -74 -84 -62 -3 13 -6 14 -20 3 -10 -8 -13 -9 -9 -1 4 6 3 14 -3 18 -6 4 -7 11 -4 17 7 10 -135 160 -145 153 -3 -2 -5 71 -3 161 l3 165 79 -79 79 -79 4 -149 3 -149 2 156 c1 110 -1 158 -10 167 -7 7 -9 12 -6 12 4 0 13 -6 21 -14 11 -12 23 -5 82 50 37 35 72 61 78 57 6 -3 7 -1 3 5 -4 7 -4 17 -1 22 9 15 15 12 9 -5z"></path> <path d="M348 415 c-10 -13 -18 -27 -18 -32 0 -4 5 -1 10 7 8 11 10 8 8 -15 -4 -70 6 -83 12 -15 3 41 6 76 5 77 0 0 -8 -9 -17 -22z"></path> <path d="M515 570 c-3 -5 1 -10 9 -10 23 0 22 -106 -1 -132 -15 -17 -14 -18 25 -18 23 0 42 5 42 10 0 6 -4 10 -10 10 -6 0 -10 26 -10 59 0 33 5 63 10 66 6 3 10 10 10 16 0 12 -67 12 -75 -1z"></path> <path d="M620 571 c0 -5 6 -11 13 -14 8 -3 3 -14 -16 -35 l-29 -30 27 -41 c20 -29 35 -41 51 -41 13 0 24 5 24 10 0 6 -4 10 -9 10 -5 0 -21 16 -37 37 l-28 36 37 31 c20 17 37 34 37 39 0 4 -16 7 -35 7 -19 0 -35 -4 -35 -9z"></path> <path d="M710 570 c0 -5 5 -10 10 -10 6 0 10 -28 10 -65 0 -37 -4 -65 -10 -65 -5 0 -10 -4 -10 -10 0 -6 32 -10 75 -10 l75 0 0 33 -1 32 -23 -28 c-33 -40 -70 -35 -73 11 -1 25 3 32 18 32 10 0 19 -7 19 -15 0 -8 5 -15 10 -15 6 0 10 17 10 38 -1 33 -2 35 -14 20 -7 -10 -23 -18 -36 -18 -19 0 -20 2 -10 15 7 8 10 22 6 30 -9 25 52 19 75 -7 l18 -23 1 33 0 32 -75 0 c-43 0 -75 -4 -75 -10z"></path> <path d="M880 571 c0 -6 4 -12 9 -15 5 -4 22 -38 37 -76 36 -92 52 -92 90 -2 15 37 33 72 41 78 21 18 15 24 -22 24 -34 0 -48 -14 -23 -22 9 -3 8 -19 -7 -61 -10 -31 -22 -54 -26 -51 -4 2 -15 28 -25 56 -12 37 -14 53 -5 56 26 9 8 22 -29 22 -22 0 -40 -4 -40 -9z"></path> <path d="M1080 570 c0 -5 5 -10 10 -10 6 0 10 -28 10 -65 0 -37 -4 -65 -10 -65 -5 0 -10 -4 -10 -10 0 -5 18 -10 40 -10 36 0 55 13 31 22 -15 5 -17 121 -3 126 27 9 9 22 -28 22 -22 0 -40 -4 -40 -10z"></path> <path d="M1180 571 c0 -6 5 -13 10 -16 6 -3 10 -30 10 -60 0 -30 -4 -57 -10 -60 -20 -12 -9 -25 20 -25 31 0 41 14 17 23 -16 6 -22 87 -7 87 6 0 10 -3 10 -7 1 -11 87 -103 97 -103 4 0 7 29 5 63 -3 48 0 68 12 79 19 19 11 28 -26 28 -30 0 -38 -14 -13 -24 16 -6 22 -86 7 -86 -4 0 -27 25 -51 55 -39 49 -81 72 -81 46z"></path> <path d="M765 362 c-56 -11 -87 -79 -61 -131 42 -80 178 -23 160 67 -10 48 -50 74 -99 64z m47 -39 c24 -21 23 -68 -2 -93 -34 -34 -80 -2 -80 55 0 53 43 73 82 38z"></path> <path d="M1110 359 c-41 -3 -70 -6 -63 -7 16 -3 22 -130 6 -137 -32 -12 -7 -20 62 -20 l75 0 0 28 c0 32 -10 35 -28 7 -7 -11 -23 -20 -37 -20 -22 0 -25 4 -25 35 0 26 3 33 15 29 8 -4 15 -10 15 -15 0 -5 5 -9 10 -9 6 0 10 14 10 32 0 25 -3 29 -12 20 -21 -21 -38 -13 -38 18 0 25 4 30 24 30 14 0 32 -10 40 -22 18 -26 29 -20 24 14 -3 22 -5 23 -78 17z"></path> <path d="M1603 360 c-12 -5 -27 -19 -34 -31 -12 -24 -13 -24 56 -72 29 -20 32 -35 9 -44 -8 -3 -25 4 -38 16 -29 27 -36 27 -36 -3 0 -34 62 -46 99 -18 41 30 38 48 -14 79 -43 26 -55 51 -28 60 6 2 21 -5 32 -16 27 -27 31 -26 31 4 0 15 -6 25 -14 25 -8 0 -20 2 -28 4 -7 3 -23 1 -35 -4z"></path> <path d="M520 350 c0 -5 5 -10 10 -10 14 0 12 -114 -2 -128 -17 -17 -9 -20 36 -14 26 3 34 7 25 13 -10 6 -13 27 -12 70 1 34 4 63 7 66 2 3 14 2 25 -2 27 -8 28 -51 2 -60 -18 -6 -18 -7 2 -45 13 -23 31 -40 44 -43 32 -6 34 1 7 31 -13 15 -27 31 -32 37 -5 5 3 19 17 32 21 18 24 25 15 40 -9 14 -26 19 -78 21 -41 2 -66 -1 -66 -8z"></path> <path d="M883 349 c13 -8 17 -23 17 -69 0 -32 -4 -62 -10 -65 -24 -15 -6 -21 48 -17 37 3 64 11 76 22 18 18 18 20 2 44 -13 21 -14 29 -4 45 21 35 -5 51 -81 51 -50 -1 -62 -3 -48 -11z m95 -30 c2 -19 -2 -28 -17 -32 -24 -6 -31 0 -31 28 0 44 43 47 48 4z m10 -75 c3 -23 -18 -37 -43 -28 -8 4 -15 17 -15 31 0 21 4 24 28 21 19 -2 28 -9 30 -24z"></path> <path d="M1219 351 c17 -11 16 -118 -1 -138 -6 -7 -9 -13 -7 -14 23 -4 72 -2 76 3 2 5 -1 8 -6 8 -13 0 -15 126 -2 134 17 11 41 -6 41 -29 0 -15 -8 -26 -19 -30 -19 -6 -18 -8 7 -48 18 -30 33 -43 49 -43 13 0 23 2 23 4 0 2 -14 21 -30 42 -30 38 -30 39 -10 50 22 12 26 40 8 58 -7 7 -40 12 -77 12 -44 0 -61 -3 -52 -9z"></path> <path d="M1380 336 c0 -35 15 -40 30 -11 25 46 40 31 40 -39 0 -50 -4 -65 -16 -70 -9 -4 -14 -9 -11 -13 10 -9 77 -11 83 -1 3 4 -2 8 -10 8 -13 0 -16 13 -16 70 0 56 3 70 15 70 8 0 15 -4 15 -8 0 -5 7 -17 15 -28 14 -18 14 -17 15 14 l0 32 -80 0 c-78 0 -80 -1 -80 -24z"></path> <path d="M562 60 c-2 -48 -18 -45 -25 5 -4 27 -4 27 -6 -7 -1 -38 13 -58 31 -40 5 5 8 27 5 48 l-4 39 -1 -45z"></path> <path d="M643 55 c0 -27 2 -38 4 -22 2 15 2 37 0 50 -2 12 -4 0 -4 -28z"></path> <path d="M673 55 c0 -27 2 -38 4 -22 2 15 2 37 0 50 -2 12 -4 0 -4 -28z"></path> <path d="M726 89 c-8 -26 -16 -79 -11 -79 7 0 27 82 21 87 -3 3 -7 0 -10 -8z"></path> <path d="M767 94 c-11 -11 -8 -54 3 -54 6 0 11 12 11 28 2 21 3 19 9 -13 l8 -40 -2 39 c-1 37 -14 55 -29 40z"></path> <path d="M837 93 c-4 -3 -7 -24 -7 -45 0 -30 4 -38 18 -37 10 0 12 3 5 6 -7 2 -13 11 -13 18 0 7 6 16 13 18 10 4 10 6 0 6 -7 1 -13 7 -13 15 0 8 6 17 13 19 6 3 7 6 1 6 -6 1 -14 -2 -17 -6z"></path> <path d="M877 94 c-10 -11 -9 -72 2 -78 5 -4 7 11 4 34 -4 25 -2 40 5 40 6 0 13 -17 15 -37 l4 -38 -1 39 c-1 37 -14 55 -29 40z"></path> <path d="M953 60 c0 -25 2 -35 4 -22 2 12 2 32 0 45 -2 12 -4 2 -4 -23z"></path> <path d="M975 91 c-3 -6 0 -8 9 -5 8 3 16 -1 19 -10 4 -14 5 -14 3 0 -1 20 -21 30 -31 15z"></path> <path d="M1031 90 c0 -8 7 -31 14 -50 l14 -35 -6 40 c-5 39 -24 75 -22 45z"></path> <path d="M1071 53 c1 -53 6 -49 11 10 2 20 0 37 -4 37 -4 0 -8 -21 -7 -47z"></path> <path d="M1103 55 c0 -27 2 -38 4 -22 2 15 2 37 0 50 -2 12 -4 0 -4 -28z"></path> <path d="M1186 88 c-16 -51 -15 -64 4 -64 13 0 20 7 20 21 0 17 -2 18 -11 5 -8 -11 -9 -7 -4 18 6 30 -1 46 -9 20z"></path> <path d="M1246 69 c-8 -44 -8 -51 5 -43 6 3 15 0 20 -7 6 -9 7 0 3 26 -9 53 -20 63 -28 24z"></path> <path d="M1310 55 c0 -48 12 -58 30 -25 6 12 7 20 1 20 -5 0 -12 -8 -14 -18 -3 -9 -5 1 -5 23 0 22 2 32 5 23 4 -18 23 -25 23 -10 0 10 -22 32 -32 32 -4 0 -8 -20 -8 -45z"></path> <path d="M1363 55 c0 -27 2 -38 4 -22 2 15 2 37 0 50 -2 12 -4 0 -4 -28z"></path> <path d="M1385 90 c-4 -6 0 -19 8 -28 8 -9 17 -24 20 -32 4 -12 6 -12 6 2 1 9 -3 20 -9 23 -5 3 -10 14 -10 23 0 15 2 15 11 2 9 -12 10 -12 7 -1 -5 19 -24 25 -33 11z"></path> <path d="M1438 60 c2 -22 6 -40 8 -40 2 0 4 18 4 40 0 22 -3 40 -8 40 -4 0 -6 -18 -4 -40z"></path> <path d="M1511 55 c1 -48 1 -49 9 -15 5 19 4 41 0 50 -6 10 -9 -1 -9 -35z"></path> <path d="M1537 73 c-3 -15 -1 -36 3 -47 7 -16 9 -9 9 27 1 52 -4 61 -12 20z"></path> <path d="M1566 76 c-3 -13 -2 -35 4 -48 l10 -23 -1 25 c-1 14 -1 34 0 45 1 17 3 18 11 5 8 -13 10 -12 10 3 0 26 -27 21 -34 -7z"></path> <path d="M1615 87 c-4 -10 -5 -21 -1 -24 10 -10 18 4 13 24 -4 17 -4 17 -12 0z"></path> <path d="M1645 60 c-4 -23 -4 -44 -1 -47 3 -4 6 7 6 23 l1 29 14 -30 14 -30 -6 40 c-8 57 -20 64 -28 15z"></path> <path d="M580 81 c0 -5 7 -14 15 -21 8 -7 15 -19 15 -28 0 -8 3 -13 6 -9 8 7 -18 67 -28 67 -5 0 -8 -4 -8 -9z"></path> <path d="M920 64 c0 -16 5 -36 10 -44 6 -10 7 -2 3 25 -7 49 -13 58 -13 19z"></path> <path d="M1132 70 c0 -14 3 -34 8 -45 6 -17 9 -14 15 18 4 21 5 41 1 44 -3 4 -7 -7 -7 -23 l-1 -29 -8 30 c-7 27 -8 28 -8 5z"></path> <path d="M1470 70 c0 -11 5 -20 10 -20 6 0 10 9 10 20 0 11 -4 20 -10 20 -5 0 -10 -9 -10 -20z"></path> <path d="M971 54 c-1 -29 26 -53 35 -30 4 9 4 20 0 23 -3 4 -6 -2 -6 -12 0 -23 -16 -9 -23 20 -4 19 -5 19 -6 -1z"></path> </g> </svg> 